<svg width="60" height="60" viewBox="0 0 60 60" fill="none" xmlns="http://www.w3.org/2000/svg">
<rect width="60" height="60" rx="13" fill="#F8F4EF"/>
<rect x="17.1778" y="15" width="3.17731" height="12.7092" rx="1.58865" fill="black"/>
<rect x="39.6459" y="15" width="3.17731" height="12.7092" rx="1.58865" fill="black"/>
<path fill-rule="evenodd" clip-rule="evenodd" d="M18.766 32.7021C19.6433 32.7021 20.3546 33.4134 20.3546 34.2908C20.3546 39.54 24.6578 43.8227 30 43.8227C35.3422 43.8227 39.6454 39.54 39.6454 34.2908C39.6454 33.4134 40.3567 32.7021 41.234 32.7021C42.1114 32.7021 42.8227 33.4134 42.8227 34.2908C42.8227 41.3251 37.0665 47 30 47C22.9335 47 17.1773 41.3251 17.1773 34.2908C17.1773 33.4134 17.8886 32.7021 18.766 32.7021Z" fill="black"/>
</svg>
