<svg width="60" height="60" viewBox="0 0 60 60" fill="none" xmlns="http://www.w3.org/2000/svg">
<rect width="60" height="60" rx="13" fill="white"/>
<rect x="13.9722" y="10" width="3.97163" height="15.8865" rx="1.98582" fill="black"/>
<rect x="42.0573" y="10" width="3.97163" height="15.8865" rx="1.98582" fill="black"/>
<path fill-rule="evenodd" clip-rule="evenodd" d="M15.9574 32.1277C17.0542 32.1277 17.9432 33.0168 17.9432 34.1135C17.9432 40.675 23.3222 46.0284 30 46.0284C36.6778 46.0284 42.0567 40.675 42.0567 34.1135C42.0567 33.0168 42.9458 32.1277 44.0425 32.1277C45.1393 32.1277 46.0284 33.0168 46.0284 34.1135C46.0284 42.9063 38.8332 50 30 50C21.1668 50 13.9716 42.9063 13.9716 34.1135C13.9716 33.0168 14.8607 32.1277 15.9574 32.1277Z" fill="black"/>
</svg>
